<mxfile host="app.diagrams.net" modified="2024-04-12T09:26:30.748Z" agent="Mozilla/5.0 (X11; Linux x86_64) AppleWebKit/537.36 (KHTML, like Gecko) Chrome/122.0.0.0 Safari/537.36" version="24.2.3" etag="x-K8riI2Rj7QnryQRPRD" type="github">
  <diagram name="Page-1" id="rQ5gEP_QkE6n_1oJXemj">
    <mxGraphModel>
      <root>
        <mxCell id="0" />
        <mxCell id="1" parent="0" />
      </root>
    </mxGraphModel>
  </diagram>
</mxfile>
